<?xml version="1.0" encoding="UTF-8" standalone="no"?>
<svg
   xmlns:dc="http://purl.org/dc/elements/1.1/"
   xmlns:cc="http://creativecommons.org/ns#"
   xmlns:rdf="http://www.w3.org/1999/02/22-rdf-syntax-ns#"
   xmlns:svg="http://www.w3.org/2000/svg"
   xmlns="http://www.w3.org/2000/svg"
   xmlns:sodipodi="http://sodipodi.sourceforge.net/DTD/sodipodi-0.dtd"
   xmlns:inkscape="http://www.inkscape.org/namespaces/inkscape"
   version="1.1"
   id="Layer_1"
   x="0px"
   y="0px"
   width="100px"
   height="99.987px"
   viewBox="0 0 100 99.987"
   enable-background="new 0 0 100 99.987"
   xml:space="preserve"
   inkscape:version="0.48.4 r9939"
   sodipodi:docname="thresholds.svg"><metadata
   id="metadata9"><rdf:RDF><cc:Work
       rdf:about=""><dc:format>image/svg+xml</dc:format><dc:type
         rdf:resource="http://purl.org/dc/dcmitype/StillImage" /><dc:title></dc:title></cc:Work></rdf:RDF></metadata><defs
   id="defs7" /><sodipodi:namedview
   pagecolor="#ffffff"
   bordercolor="#666666"
   borderopacity="1"
   objecttolerance="10"
   gridtolerance="10"
   guidetolerance="10"
   inkscape:pageopacity="0"
   inkscape:pageshadow="2"
   inkscape:window-width="1646"
   inkscape:window-height="969"
   id="namedview5"
   showgrid="false"
   inkscape:zoom="2.3603069"
   inkscape:cx="-16.093101"
   inkscape:cy="49.9935"
   inkscape:window-x="-8"
   inkscape:window-y="-8"
   inkscape:window-maximized="1"
   inkscape:current-layer="Layer_1" />
<path
   d="M99.968,0L0,0.026l0.013,99.96L100,99.961L99.968,0z M93.483,93.575H72.168V72.142l21.302-0.02L93.483,93.575z M6.602,6.289  H27.93v21.433H17.272H6.608L6.602,6.289z M28.463,50.195h9.499l-9.499,19.024V50.195z M28.463,49.668l-0.006-10.709V28.249  l21.309-0.013v3.34c-0.267-0.045-0.527-0.156-0.827-0.137c-1.041,0.091-1.973,0.729-2.447,1.673l-8.269,16.556H28.463z M50.3,40.996  l6.504,8.672h-6.498L50.3,40.996z M71.628,50.195v4.928l-1.035,2.761l-5.769-7.689H71.628z M71.628,28.236v21.432h-7.207  L51.66,32.644c-0.358-0.476-0.833-0.781-1.367-0.97v-3.438h10.664H71.628z M49.733,40.248l0.039,0.039l0.006,9.381h-4.746  L49.733,40.248z M57.207,50.195L69.056,65.99c0.612,0.801,1.589,1.179,2.585,1.146v4.479l-21.335,0.013V50.195H57.207z   M72.155,50.195h1.321l-1.321,3.516V50.195z M72.155,49.668V28.236h9.544l-8.021,21.432H72.155z M72.155,27.708L72.142,16.96V6.276  l17.78-0.013l-8.027,21.445H72.155z M71.628,27.708H60.957H50.293V6.276h21.315l0.013,10.684L71.628,27.708z M49.766,27.708  l-21.309,0.013V6.289l21.309-0.013V27.708z M27.93,28.249v10.709l0.006,10.709L6.608,49.681V28.249h10.664H27.93z M27.936,50.195  v20.072l-0.677,1.36h-9.987L6.621,71.641L6.608,50.208L27.936,50.195z M26.999,72.155l-2.383,4.766L6.621,88.932V72.168  L26.999,72.155z M27.943,82.018v0.886l0.02,10.684H10.605L27.943,82.018z M44.772,50.195h5.006v21.432H34.069L44.772,50.195z   M72.168,71.615v-4.544c0.983-0.222,1.81-0.886,2.181-1.843l5.632-15.045H93.47v21.419L72.168,71.615z M80.183,49.655l8.021-21.433  h5.267v21.433H80.183z M88.405,27.708l5.064-13.535v13.522L88.405,27.708z M28.47,82.904v-1.23l0.195-0.124  c0.442-0.293,0.794-0.709,1.028-1.178l4.115-8.217h15.97l0.014,10.71l0.006,10.71l-21.315,0.013L28.47,82.904z M50.306,72.155  l21.335-0.013v21.433H50.325l-0.006-10.71L50.306,72.155z"
   id="path3"
   style="fill:#2c89a0"
   inkscape:export-filename="C:\Development\Continuous IT\seq-apps\asset\path2986.png"
   inkscape:export-xdpi="115.21613"
   inkscape:export-ydpi="115.21613" />
<path
   style="fill:#ff2a2a;stroke:#ff2a2a;stroke-width:7.90000009999999890;stroke-linecap:butt;stroke-linejoin:miter;stroke-miterlimit:4;stroke-opacity:1;stroke-dasharray:7.90000004000000010, 7.90000004000000010;stroke-dashoffset:0"
   d="M 0.66041074,27.538792 100.22374,27.115118"
   id="path2986"
   inkscape:connector-curvature="0"
   sodipodi:nodetypes="cc"
   inkscape:export-xdpi="115.21613"
   inkscape:export-ydpi="115.21613" /></svg>